<svg width="18" height="18" viewBox="0 0 18 18" fill="none" xmlns="http://www.w3.org/2000/svg">
<path d="M17.4001 0.613143C17.2767 0.489539 17.1302 0.391475 16.9689 0.324567C16.8076 0.257658 16.6347 0.223218 16.4601 0.223218C16.2854 0.223218 16.1125 0.257658 15.9512 0.324567C15.7899 0.391475 15.6434 0.489539 15.5201 0.613143L9.00005 7.11981L2.48005 0.59981C2.35661 0.476367 2.21006 0.378447 2.04878 0.31164C1.88749 0.244834 1.71463 0.210449 1.54005 0.210449C1.36548 0.210449 1.19261 0.244834 1.03133 0.31164C0.870044 0.378447 0.723496 0.476367 0.600054 0.59981C0.476611 0.723252 0.378691 0.8698 0.311885 1.03109C0.245078 1.19237 0.210693 1.36524 0.210693 1.53981C0.210693 1.71438 0.245078 1.88725 0.311885 2.04853C0.378691 2.20982 0.476611 2.35637 0.600054 2.47981L7.12005 8.99981L0.600054 15.5198C0.476611 15.6433 0.378691 15.7898 0.311885 15.9511C0.245078 16.1124 0.210693 16.2852 0.210693 16.4598C0.210693 16.6344 0.245078 16.8072 0.311885 16.9685C0.378691 17.1298 0.476611 17.2764 0.600054 17.3998C0.723496 17.5233 0.870044 17.6212 1.03133 17.688C1.19261 17.7548 1.36548 17.7892 1.54005 17.7892C1.71463 17.7892 1.88749 17.7548 2.04878 17.688C2.21006 17.6212 2.35661 17.5233 2.48005 17.3998L9.00005 10.8798L15.5201 17.3998C15.6435 17.5233 15.79 17.6212 15.9513 17.688C16.1126 17.7548 16.2855 17.7892 16.4601 17.7892C16.6346 17.7892 16.8075 17.7548 16.9688 17.688C17.1301 17.6212 17.2766 17.5233 17.4001 17.3998C17.5235 17.2764 17.6214 17.1298 17.6882 16.9685C17.755 16.8072 17.7894 16.6344 17.7894 16.4598C17.7894 16.2852 17.755 16.1124 17.6882 15.9511C17.6214 15.7898 17.5235 15.6433 17.4001 15.5198L10.8801 8.99981L17.4001 2.47981C17.9067 1.97314 17.9067 1.11981 17.4001 0.613143Z" fill="#333333"/>
</svg>
