<svg width="24" height="15" viewBox="0 0 24 15" fill="none" xmlns="http://www.w3.org/2000/svg">
<path d="M4.24007 1.58014L12.0001 9.34013L19.7601 1.58014C19.9452 1.39497 20.1651 1.24809 20.407 1.14788C20.6489 1.04767 20.9082 0.996094 21.1701 0.996094C21.4319 0.996094 21.6912 1.04767 21.9332 1.14788C22.1751 1.24809 22.3949 1.39497 22.5801 1.58014C22.7652 1.7653 22.9121 1.98512 23.0123 2.22705C23.1125 2.46898 23.1641 2.72827 23.1641 2.99013C23.1641 3.252 23.1125 3.51129 23.0123 3.75322C22.9121 3.99515 22.7652 4.21497 22.5801 4.40013L13.4001 13.5801C13.215 13.7655 12.9953 13.9126 12.7533 14.013C12.5114 14.1134 12.252 14.165 11.9901 14.165C11.7281 14.165 11.4688 14.1134 11.2268 14.013C10.9849 13.9126 10.7651 13.7655 10.5801 13.5801L1.40007 4.40013C1.21467 4.21511 1.06757 3.99533 0.967208 3.75338C0.866845 3.51144 0.815186 3.25207 0.815186 2.99013C0.815186 2.7282 0.866845 2.46883 0.967208 2.22689C1.06757 1.98494 1.21467 1.76516 1.40007 1.58014C2.18007 0.820135 3.46007 0.800135 4.24007 1.58014Z" fill="white"/>
</svg>
