<svg width="34" height="57" viewBox="0 0 34 57" fill="none" xmlns="http://www.w3.org/2000/svg">
<path d="M32.4481 48.3003L13.0481 28.9003L32.4481 9.50034C32.911 9.03743 33.2782 8.48787 33.5287 7.88305C33.7792 7.27823 33.9082 6.62999 33.9082 5.97534C33.9082 5.32068 33.7792 4.67244 33.5287 4.06762C33.2782 3.4628 32.911 2.91325 32.4481 2.45034C31.9851 1.98743 31.4356 1.62023 30.8308 1.3697C30.226 1.11918 29.5777 0.990234 28.9231 0.990234C28.2684 0.990234 27.6202 1.11918 27.0153 1.3697C26.4105 1.62023 25.861 1.98743 25.3981 2.45034L2.44806 25.4003C1.98454 25.8629 1.61681 26.4124 1.3659 27.0172C1.11499 27.6221 0.98584 28.2705 0.98584 28.9253C0.98584 29.5802 1.11499 30.2286 1.3659 30.8335C1.61681 31.4383 1.98454 31.9878 2.44806 32.4503L25.3981 55.4003C27.3481 57.3503 30.4981 57.3503 32.4481 55.4003C34.3481 53.4503 34.3981 50.2503 32.4481 48.3003Z" fill="white"/>
</svg>
