<svg width="34" height="57" viewBox="0 0 34 57" fill="none" xmlns="http://www.w3.org/2000/svg">
<path d="M2.45034 48.3003L21.8503 28.9003L2.45034 9.50034C1.98743 9.03743 1.62023 8.48787 1.36971 7.88305C1.11918 7.27823 0.990234 6.62999 0.990234 5.97534C0.990234 5.32068 1.11918 4.67244 1.36971 4.06762C1.62023 3.4628 1.98743 2.91325 2.45034 2.45034C2.91325 1.98743 3.4628 1.62023 4.06762 1.3697C4.67244 1.11918 5.32068 0.990234 5.97534 0.990234C6.62999 0.990234 7.27823 1.11918 7.88305 1.3697C8.48787 1.62023 9.03743 1.98743 9.50034 2.45034L32.4503 25.4003C34.4003 27.3503 34.4003 30.5003 32.4503 32.4503L9.50034 55.4003C9.03777 55.8639 8.48833 56.2316 7.88346 56.4825C7.27859 56.7334 6.63018 56.8626 5.97534 56.8626C5.3205 56.8626 4.67208 56.7334 4.06722 56.4825C3.46235 56.2316 2.91291 55.8639 2.45034 55.4003C0.550338 53.4503 0.500338 50.2503 2.45034 48.3003Z" fill="white"/>
</svg>
